# xmcd CD database file
#
# Track frame offsets:
#	150
#	25389
#	52058
#	96821
#	117235
#	139187
#	186155
#	215971
#	242479
#	271113
#	303123
#
# Disc length: 4393 seconds
#
# Revision: 0
# Processed by: cddbd v1.5.2PL0 Copyright (c) Steve Scherf et al.
# Submitted via: CDex 1.51
#
DISCID=9d11270b
DTITLE=AGB Series - AGB Series - From Jump to Bop CD2
DYEAR=2006
DGENRE=Jazz
TTITLE0=Louis Hayes Quintet: Interlude
TTITLE1=Michael Philip Mossman Sextet: Mama Soho
TTITLE2=Buster Williams Quartet: Christina
TTITLE3=Steve Nelson Quartet: Wild Is the Wind
TTITLE4=Wilkins-Drew Jr. Quartet: If You Could See Me Now
TTITLE5=Duane Eubanks Sextet: Slew Footed
TTITLE6=Michael Philip Mossman Sextet: Kitosillo
TTITLE7=Cannonball Legacy Band: The Chant
TTITLE8=Kenny Drew Jr.: Remembering the Rain
TTITLE9=George Robert: Blues for C.T.
TTITLE10=David Bubba Brooks: Mood Indigo
EXTD=YEAR: 2006
EXTT0=
EXTT1=
EXTT2=
EXTT3=
EXTT4=
EXTT5=
EXTT6=
EXTT7=
EXTT8=
EXTT9=
EXTT10=
PLAYORDER=
